<svg xmlns="http://www.w3.org/2000/svg" viewBox="0 0 32 32">
  <path d="M4 1
           Q1 1 1 4.5
           L1 27
           Q1 31 5 31
           L28 31
           Q31 31 31 27.5
           L31 5
           Q31 1 27 1
           Z"
        fill="#fff"/>
  <path d="M16 3
           C25 3 29 10 29 16
           C29 24 22 29 14 28
           C7 27 4 21 4 16
           C4 10 9 6 14 6
           C19 6 23 10 23 15
           C23 20 19 23 15 22
           C11 21 10 18 10 15
           C10 12 12 10 15 10
           C17 10 19 12 18 14
           C17 16 15 16 15 15"
        fill="none"
        stroke="#000"
        stroke-width="2.5"
        stroke-linecap="round"/>
</svg>
